<?xml version="1.0" encoding="UTF-8" standalone="no"?>
<!-- Created with Inkscape (http://www.inkscape.org/) -->

<svg
   xmlns:dc="http://purl.org/dc/elements/1.1/"
   xmlns:cc="http://creativecommons.org/ns#"
   xmlns:rdf="http://www.w3.org/1999/02/22-rdf-syntax-ns#"
   xmlns:svg="http://www.w3.org/2000/svg"
   xmlns="http://www.w3.org/2000/svg"
   xmlns:sodipodi="http://sodipodi.sourceforge.net/DTD/sodipodi-0.dtd"
   xmlns:inkscape="http://www.inkscape.org/namespaces/inkscape"
   id="svg5398"
   version="1.1"
   inkscape:version="0.48.4 r9939"
   width="630"
   height="630"
   xml:space="preserve"
   sodipodi:docname="delete-time.svg"><metadata
     id="metadata5404"><rdf:RDF><cc:Work
         rdf:about=""><dc:format>image/svg+xml</dc:format><dc:type
           rdf:resource="http://purl.org/dc/dcmitype/StillImage" /><dc:title /></cc:Work></rdf:RDF></metadata><defs
     id="defs5402"><clipPath
       clipPathUnits="userSpaceOnUse"
       id="clipPath5414"><path
         d="m 59.04,73.44 414.72,0 0,371.52 -414.72,0 0,-371.52 z"
         id="path5416" /></clipPath></defs><sodipodi:namedview
     pagecolor="#ffffff"
     bordercolor="#666666"
     borderopacity="1"
     objecttolerance="10"
     gridtolerance="10"
     guidetolerance="10"
     inkscape:pageopacity="0"
     inkscape:pageshadow="2"
     inkscape:window-width="1680"
     inkscape:window-height="1023"
     id="namedview5400"
     showgrid="false"
     inkscape:zoom="0.83208031"
     inkscape:cx="376.30453"
     inkscape:cy="330.02202"
     inkscape:window-x="1280"
     inkscape:window-y="2"
     inkscape:window-maximized="1"
     inkscape:current-layer="g5488" /><g
     id="g5406"
     inkscape:groupmode="layer"
     inkscape:label="delete-time2"
     transform="matrix(1.25,0,0,-1.25,0,630)"><g
       id="g5408" /><g
       id="g5410"
       style="stroke:#002d8d;stroke-opacity:1;stroke-width:4;stroke-miterlimit:4;stroke-dasharray:none"><g
         id="g5412"
         clip-path="url(#clipPath5414)"
         style="stroke:#002d8d;stroke-opacity:1;stroke-width:4;stroke-miterlimit:4;stroke-dasharray:none"><path
           d="m 74.4,87.2 1.88,0.07 1.88,0.05 1.89,0.07 1.88,0.11 1.88,0.1 1.88,0.11 1.89,0.18 1.88,0.17 1.88,0.16 1.88,0.18 1.89,0.2 1.88,0.21 1.88,0.23 1.88,0.25 1.89,0.42 1.88,0.28 1.88,0.29 1.88,0.3 1.88,0.43 1.89,0.35 1.88,0.36 1.88,0.37 1.88,0.39 1.89,0.41 1.88,0.43 1.88,0.44 1.88,0.46 1.89,0.48 1.88,0.5 1.88,0.51 1.88,0.55 1.89,0.6 1.88,0.62 1.88,0.59 1.88,0.65 1.88,0.62 1.89,0.67 1.88,0.64 1.88,0.77 1.88,0.75 1.89,0.71 1.88,0.81 1.88,0.75 1.88,0.74 1.89,0.76 1.88,0.77 1.88,0.8 1.88,0.87 1.89,0.81 1.88,0.89 1.88,0.9 1.88,0.87 1.88,1.02 1.89,0.9 1.88,0.94 1.88,1.02 1.88,0.96 1.89,0.96 1.88,0.97 1.88,0.99 1.88,1 1.89,1.01 1.88,1.04 1.88,1.04 1.88,1.06 1.89,1.08 1.88,1.09 1.88,1.11 1.88,1.12 1.88,1.16 1.89,1.23 1.88,1.2 1.88,1.29 1.88,1.21 1.89,1.26 1.88,1.23 1.88,1.28 1.88,1.28 1.89,1.29 1.88,1.29 1.88,1.3 1.88,1.53 1.89,1.44 1.88,1.35 1.88,1.4 1.88,1.38 1.88,1.48 1.89,1.47 1.88,1.45 1.88,1.51 1.88,1.58 1.89,1.49 1.88,1.54 1.88,1.55 1.88,1.55 1.89,1.58 1.88,1.58 1.88,1.64 1.88,1.79 1.89,1.63 1.88,1.66 1.88,1.68 1.88,1.67 1.88,1.89 1.89,1.74 1.88,1.71 1.88,1.77 1.88,1.75 1.89,1.79 1.88,1.79 1.88,1.79 1.88,1.82 1.89,1.84 1.88,1.85 1.88,1.87 1.88,1.92 1.89,1.89 1.88,1.92 1.88,1.97 1.88,1.96 1.88,1.94 1.89,1.97 1.88,1.99 1.88,2 1.88,2.03 1.89,2.06 1.88,2.11 1.88,2.07 1.88,2.08 1.89,2.11 1.88,2.17 1.88,2.14 1.88,2.21 1.89,2.17 1.88,2.19 1.88,2.23 1.88,2.22 1.88,2.26 1.89,2.25 1.88,2.27 1.88,2.27 1.88,2.3 1.89,2.32 1.88,2.34 1.88,2.35 1.88,2.37 1.89,2.49 1.88,2.43 1.88,2.58 1.88,2.44 1.89,2.52 1.88,2.55 1.88,2.62 1.88,2.61 1.88,2.63 1.89,2.64 1.88,2.7 1.88,2.67 1.88,2.71 1.89,2.61 1.88,2.59 1.88,2.62 1.88,2.63 1.89,2.66 1.88,2.68 1.88,2.71 1.88,2.73 1.89,2.74 1.88,2.73 1.88,2.74 1.88,2.76 1.88,2.79 1.89,2.83 1.88,2.83 1.88,2.82 1.88,2.88 1.89,2.84 1.88,2.85 1.88,2.88 1.88,2.88 1.89,2.92 1.88,2.92 1.88,2.93 1.88,2.95 1.89,2.97 1.88,3.01 1.88,2.99 1.88,3.01 1.88,3.02 1.89,3.04 1.88,3.07 1.88,3.06 1.88,3.1 1.89,3.09 1.88,3.11 1.88,3.16 1.88,3.17 1.89,3.15 1.88,3.17 1.88,3.19 1.88,3.22 1.89,3.23 1.88,3.24 1.88,3.27"
           style="fill:none;stroke:#002d8d;stroke-opacity:1;stroke-width:4;stroke-linecap:round;stroke-linejoin:round;stroke-miterlimit:4;stroke-dasharray:none"
           id="path5418" /></g></g><g
       id="g5420"><path
         d="m 74.4,73.44 376.47,0"
         style="fill:none;stroke:#000000;stroke-opacity:1;stroke-width:0.75;stroke-linecap:round;stroke-linejoin:round;stroke-miterlimit:10;stroke-dasharray:none"
         id="path5422" /><path
         d="m 74.4,73.44 0,-7.2"
         style="fill:none;stroke:#000000;stroke-opacity:1;stroke-width:0.75;stroke-linecap:round;stroke-linejoin:round;stroke-miterlimit:10;stroke-dasharray:none"
         id="path5424" /><path
         d="m 168.52,73.44 0,-7.2"
         style="fill:none;stroke:#000000;stroke-opacity:1;stroke-width:0.75;stroke-linecap:round;stroke-linejoin:round;stroke-miterlimit:10;stroke-dasharray:none"
         id="path5426" /><path
         d="m 262.64,73.44 0,-7.2"
         style="fill:none;stroke:#000000;stroke-opacity:1;stroke-width:0.75;stroke-linecap:round;stroke-linejoin:round;stroke-miterlimit:10;stroke-dasharray:none"
         id="path5428" /><path
         d="m 356.75,73.44 0,-7.2"
         style="fill:none;stroke:#000000;stroke-opacity:1;stroke-width:0.75;stroke-linecap:round;stroke-linejoin:round;stroke-miterlimit:10;stroke-dasharray:none"
         id="path5430" /><path
         d="m 450.87,73.44 0,-7.2"
         style="fill:none;stroke:#000000;stroke-opacity:1;stroke-width:0.75;stroke-linecap:round;stroke-linejoin:round;stroke-miterlimit:10;stroke-dasharray:none"
         id="path5432" /><path
         d="m 59.04,87.12 0,307.87"
         style="fill:none;stroke:#000000;stroke-opacity:1;stroke-width:0.75;stroke-linecap:round;stroke-linejoin:round;stroke-miterlimit:10;stroke-dasharray:none"
         id="path5454" /><path
         d="m 59.04,87.12 -7.2,0"
         style="fill:none;stroke:#000000;stroke-opacity:1;stroke-width:0.75;stroke-linecap:round;stroke-linejoin:round;stroke-miterlimit:10;stroke-dasharray:none"
         id="path5456" /><path
         d="m 59.04,164.09 -7.2,0"
         style="fill:none;stroke:#000000;stroke-opacity:1;stroke-width:0.75;stroke-linecap:round;stroke-linejoin:round;stroke-miterlimit:10;stroke-dasharray:none"
         id="path5458" /><path
         d="m 59.04,241.06 -7.2,0"
         style="fill:none;stroke:#000000;stroke-opacity:1;stroke-width:0.75;stroke-linecap:round;stroke-linejoin:round;stroke-miterlimit:10;stroke-dasharray:none"
         id="path5460" /><path
         d="m 59.04,318.03 -7.2,0"
         style="fill:none;stroke:#000000;stroke-opacity:1;stroke-width:0.75;stroke-linecap:round;stroke-linejoin:round;stroke-miterlimit:10;stroke-dasharray:none"
         id="path5462" /><path
         d="m 59.04,394.99 -7.2,0"
         style="fill:none;stroke:#000000;stroke-opacity:1;stroke-width:0.75;stroke-linecap:round;stroke-linejoin:round;stroke-miterlimit:10;stroke-dasharray:none"
         id="path5464" /><path
         d="m 59.04,73.44 414.72,0 0,371.52 -414.72,0 0,-371.52"
         style="fill:none;stroke:#000000;stroke-opacity:1;stroke-width:0.75;stroke-linecap:round;stroke-linejoin:round;stroke-miterlimit:10;stroke-dasharray:none"
         id="path5486" /></g><g
       id="g5488"><text
   transform="scale(1,-1)"
   id="text5490"
   x="262.98154"
   y="-34.720001"
   style="text-align:center;text-anchor:middle;-inkscape-font-specification:Latin Modern Sans;font-family:Latin Modern Sans;font-weight:normal;font-style:normal;font-stretch:normal;font-variant:normal"><tspan
     style="font-size:12px;font-variant:normal;font-weight:normal;text-align:center;writing-mode:lr-tb;text-anchor:middle;fill:#000000;fill-opacity:1;fill-rule:nonzero;stroke:none;font-family:Latin Modern Sans;-inkscape-font-specification:Latin Modern Sans;font-style:normal;font-stretch:normal"
     sodipodi:role="line"
     id="tspan5492"
     x="262.98154"
     y="-34.720001">Table size</tspan></text>

<text
   transform="matrix(0,1,1,0,0,0)"
   id="text5494"
   x="250.812"
   y="28.959999"
   style="text-align:center;text-anchor:middle;-inkscape-font-specification:Latin Modern Sans;font-family:Latin Modern Sans;font-weight:normal;font-style:normal;font-stretch:normal;font-variant:normal"><tspan
     style="font-size:12px;font-variant:normal;font-weight:normal;text-align:center;writing-mode:lr-tb;text-anchor:middle;fill:#000000;fill-opacity:1;fill-rule:nonzero;stroke:none;font-family:Latin Modern Sans;-inkscape-font-specification:Latin Modern Sans;font-style:normal;font-stretch:normal"
     sodipodi:role="line"
     id="tspan5496"
     x="250.812"
     y="28.959999">Time to delete</tspan></text>

</g></g></svg>