<?xml version="1.0" encoding="UTF-8" standalone="no"?>
<!-- Created with Inkscape (http://www.inkscape.org/) -->

<svg
   xmlns:dc="http://purl.org/dc/elements/1.1/"
   xmlns:cc="http://creativecommons.org/ns#"
   xmlns:rdf="http://www.w3.org/1999/02/22-rdf-syntax-ns#"
   xmlns:svg="http://www.w3.org/2000/svg"
   xmlns="http://www.w3.org/2000/svg"
   xmlns:sodipodi="http://sodipodi.sourceforge.net/DTD/sodipodi-0.dtd"
   xmlns:inkscape="http://www.inkscape.org/namespaces/inkscape"
   id="svg3004"
   version="1.1"
   inkscape:version="0.48.3.1 r9886"
   width="360.19376"
   height="188.78197"
   xml:space="preserve"
   sodipodi:docname="graph-based-strat.pdf"><metadata
     id="metadata3010"><rdf:RDF><cc:Work
         rdf:about=""><dc:format>image/svg+xml</dc:format><dc:type
           rdf:resource="http://purl.org/dc/dcmitype/StillImage" /><dc:title></dc:title></cc:Work></rdf:RDF></metadata><defs
     id="defs3008"><clipPath
       clipPathUnits="userSpaceOnUse"
       id="clipPath3246"><path
         d="m 161.065,657.637 289.02,0 0,-151.37 -289.02,0 0,151.37 z"
         id="path3248"
         inkscape:connector-curvature="0" /></clipPath><clipPath
       clipPathUnits="userSpaceOnUse"
       id="clipPath3324"><path
         d="m 161.065,657.637 289.02,0 0,-151.37 -289.02,0 0,151.37 z"
         id="path3326"
         inkscape:connector-curvature="0" /></clipPath></defs><sodipodi:namedview
     pagecolor="#ffffff"
     bordercolor="#666666"
     borderopacity="1"
     objecttolerance="10"
     gridtolerance="10"
     guidetolerance="10"
     inkscape:pageopacity="0"
     inkscape:pageshadow="2"
     inkscape:window-width="1680"
     inkscape:window-height="1023"
     id="namedview3006"
     showgrid="false"
     showguides="true"
     inkscape:guide-bbox="true"
     inkscape:snap-bbox="true"
     fit-margin-top="0"
     fit-margin-left="0"
     fit-margin-right="0"
     fit-margin-bottom="0"
     inkscape:zoom="2"
     inkscape:cx="221.81182"
     inkscape:cy="38.384051"
     inkscape:window-x="1280"
     inkscape:window-y="2"
     inkscape:window-maximized="1"
     inkscape:current-layer="g3012"><sodipodi:guide
       orientation="1,0"
       position="-45.43479,120.04213"
       id="guide3804" /><sodipodi:guide
       orientation="0,1"
       position="-8.40811,178.28201"
       id="guide3834" /><sodipodi:guide
       orientation="1,0"
       position="201.79545,201.80938"
       id="guide3836" /><sodipodi:guide
       orientation="1,0"
       position="-0.69422,200.6523"
       id="guide3838" /></sodipodi:namedview><g
     id="g3012"
     inkscape:groupmode="layer"
     inkscape:label="altenhoff-dessimoz-orthology-bookchapter"
     transform="matrix(1.25,0,0,-1.25,-202.4125,821.61572)"><g
       transform="translate(294.504,526.938)"
       id="g3210"><path
         inkscape:connector-curvature="0"
         id="path3212"
         style="fill:#131413;fill-opacity:1;fill-rule:evenodd;stroke:none"
         d="m 0,0 c 0.039,-0.406 -0.287,-0.883 -0.225,-1.296 0.034,-0.232 0.321,-0.495 0.507,-0.788 0.357,-0.566 0.578,-1.291 1.349,-1.35 0.242,0.793 0.379,1.494 0.844,2.195 0.461,0.695 1.389,2.057 2.589,1.182 0.169,-0.123 0.335,-0.426 0.561,-0.675 0.233,-0.254 0.546,-0.458 0.621,-0.564 0.399,-0.571 0.563,-1.306 0.73,-2.082 0.453,-0.079 0.545,0.203 0.899,0.225 0.152,0.487 0.364,0.911 0.621,1.294 -0.086,0.19 -0.29,0.416 -0.34,0.789 0.074,0.263 0.31,-0.191 0.451,-0.226 0.305,0.264 -0.068,0.925 0.113,1.239 0.083,-0.104 0.108,-0.268 0.113,-0.451 0.156,0.163 0.265,0.372 0.28,0.675 0.131,-1.216 0.073,-3.122 -0.449,-4.05 -0.461,-0.235 -0.815,-0.575 -1.407,-0.679 0.217,-1.649 0.764,-3.114 0.675,-5.066 -0.029,-0.663 -0.073,-1.479 -0.281,-2.027 0.51,-0.724 1.599,-0.757 2.138,-1.519 0.064,-0.092 0.288,-0.531 0.337,-0.732 0.025,-0.101 -0.063,-0.185 -0.057,-0.338 0.008,-0.142 0.118,-0.269 0.113,-0.394 -0.019,-0.438 -0.164,-0.792 -0.338,-1.183 0.637,0.342 1.56,1.179 2.869,0.845 0.017,-0.149 -0.02,-0.243 -0.168,-0.226 0.225,-0.207 0.65,-0.212 0.9,-0.394 -0.138,-0.119 -0.597,-0.076 -0.675,0.057 -0.032,-0.278 0.152,-0.06 0.282,-0.225 -0.324,-0.596 -0.932,-0.908 -1.632,-1.126 -0.663,-0.659 -1.398,-1.526 -3.093,-1.351 -1.428,0.147 -2.507,1.229 -1.689,2.702 -0.629,0.121 -1.396,0.105 -1.97,0.281 -0.203,-0.039 -0.259,-0.226 -0.45,-0.281 -0.169,0.035 -0.155,0.255 -0.28,0.337 -0.677,-0.141 -1.485,-0.005 -2.193,0 0.623,-1.712 -0.317,-2.766 -2.194,-2.59 -0.546,0.052 -1.01,0.22 -1.352,0.508 -0.146,0.123 -0.545,0.308 -0.732,0.506 -0.16,0.173 -0.243,0.437 -0.449,0.62 -0.142,0.124 -0.424,0.225 -0.619,0.394 -0.323,0.284 -0.654,0.59 -0.617,1.069 0.36,-0.044 0.324,-0.154 0.617,-0.281 0.121,0.018 -0.058,0.195 -0.168,0.168 0.017,0.079 0.141,0.047 0.225,0.057 -0.365,0.275 -0.69,0.584 -1.125,0.787 0.265,0.093 0.544,0.017 0.842,0 0.162,0.07 -0.243,0.164 -0.054,0.282 1.31,0.15 1.741,-0.584 2.361,-1.126 -0.166,2.139 1.258,2.683 2.701,3.21 -0.265,1.166 -0.429,2.579 -0.282,3.996 0.024,0.207 0.03,0.455 0.056,0.621 0.047,0.285 0.211,0.556 0.283,0.844 0.115,0.475 0.164,0.967 0.224,1.464 -0.238,0.165 -0.448,0.305 -0.673,0.451 -0.503,0.321 -0.952,0.655 -1.238,1.295 C -0.812,-2.128 -0.8,-0.96 -1.07,0 c 0.052,0.153 0.229,-0.026 0.171,-0.171 0.19,0.081 0.026,0.307 0.11,0.396 0.233,-0.237 -0.16,-0.731 0.057,-0.788 0.248,0.072 0.05,0.588 0.113,0.844 0.177,-0.311 0.075,-0.902 0.28,-1.182 C -0.202,-0.624 -0.15,-0.262 0,0" /></g><g
       transform="translate(294.504,526.938)"
       id="g3214"><path
         inkscape:connector-curvature="0"
         id="path3216"
         style="fill:none;stroke:#131413;stroke-width:0.46799999;stroke-linecap:butt;stroke-linejoin:miter;stroke-miterlimit:4;stroke-opacity:1;stroke-dasharray:none"
         d="m 0,0 c 0.039,-0.406 -0.287,-0.883 -0.225,-1.296 0.034,-0.232 0.321,-0.495 0.507,-0.788 0.357,-0.566 0.578,-1.291 1.349,-1.35 0.242,0.793 0.379,1.494 0.844,2.195 0.461,0.695 1.389,2.057 2.589,1.182 0.169,-0.123 0.335,-0.426 0.56,-0.675 0.234,-0.254 0.547,-0.458 0.622,-0.564 0.399,-0.571 0.563,-1.306 0.73,-2.082 0.453,-0.079 0.545,0.203 0.899,0.225 0.152,0.487 0.364,0.911 0.62,1.294 -0.085,0.189 -0.289,0.416 -0.339,0.789 0.074,0.263 0.31,-0.191 0.451,-0.226 0.305,0.264 -0.068,0.925 0.113,1.239 0.083,-0.104 0.108,-0.268 0.113,-0.451 0.156,0.163 0.265,0.372 0.28,0.675 0.131,-1.216 0.073,-3.122 -0.449,-4.05 -0.461,-0.235 -0.815,-0.575 -1.407,-0.679 0.217,-1.649 0.764,-3.114 0.675,-5.066 -0.029,-0.663 -0.073,-1.479 -0.281,-2.027 0.51,-0.724 1.599,-0.757 2.138,-1.519 0.064,-0.092 0.288,-0.531 0.337,-0.732 0.025,-0.101 -0.063,-0.185 -0.057,-0.338 0.008,-0.142 0.118,-0.269 0.113,-0.394 -0.019,-0.438 -0.164,-0.792 -0.338,-1.183 0.637,0.342 1.56,1.179 2.869,0.845 0.017,-0.148 -0.02,-0.243 -0.168,-0.226 0.225,-0.207 0.65,-0.212 0.9,-0.394 -0.138,-0.119 -0.597,-0.076 -0.675,0.057 -0.032,-0.278 0.152,-0.06 0.282,-0.225 -0.324,-0.596 -0.932,-0.908 -1.632,-1.126 -0.663,-0.659 -1.398,-1.526 -3.093,-1.351 -1.428,0.147 -2.507,1.229 -1.689,2.702 -0.629,0.121 -1.396,0.105 -1.97,0.281 -0.203,-0.039 -0.259,-0.225 -0.45,-0.281 -0.169,0.035 -0.155,0.255 -0.28,0.337 -0.677,-0.141 -1.485,-0.005 -2.193,0 0.623,-1.712 -0.317,-2.766 -2.194,-2.59 -0.546,0.052 -1.01,0.22 -1.351,0.508 -0.147,0.123 -0.546,0.308 -0.733,0.506 -0.16,0.173 -0.242,0.437 -0.449,0.62 -0.142,0.124 -0.424,0.225 -0.619,0.394 -0.323,0.284 -0.653,0.59 -0.617,1.069 0.36,-0.044 0.324,-0.154 0.617,-0.281 0.121,0.018 -0.058,0.195 -0.168,0.168 0.017,0.079 0.141,0.047 0.225,0.057 -0.365,0.275 -0.69,0.584 -1.125,0.787 0.265,0.093 0.544,0.017 0.842,0 0.162,0.07 -0.243,0.164 -0.054,0.282 1.31,0.15 1.741,-0.584 2.361,-1.126 -0.166,2.139 1.258,2.683 2.701,3.21 -0.265,1.166 -0.429,2.579 -0.282,3.996 0.024,0.207 0.03,0.455 0.056,0.621 0.047,0.285 0.211,0.556 0.283,0.844 0.115,0.475 0.164,0.967 0.224,1.464 -0.238,0.165 -0.448,0.305 -0.673,0.451 -0.503,0.321 -0.952,0.655 -1.238,1.295 C -0.812,-2.128 -0.8,-0.96 -1.07,0 c 0.052,0.153 0.229,-0.026 0.171,-0.171 0.19,0.081 0.026,0.307 0.11,0.396 0.233,-0.237 -0.16,-0.731 0.057,-0.788 0.248,0.072 0.05,0.588 0.113,0.844 0.177,-0.311 0.075,-0.902 0.28,-1.182 C -0.202,-0.624 -0.15,-0.262 0,0 z" /></g><g
       transform="translate(259.386,510.507)"
       id="g3218"><path
         inkscape:connector-curvature="0"
         id="path3220"
         style="fill:#c5291c;fill-opacity:1;fill-rule:nonzero;stroke:none"
         d="m 0,0 c 0.378,-0.81 1.934,-2.157 1.292,-3.125 -0.75,0.028 -1.141,0.674 -1.508,1.21 -0.153,0.218 -0.374,0.421 -0.437,0.567 -0.213,0.496 -0.16,1.076 -0.389,1.622 -0.232,0.551 -0.706,0.99 -0.945,1.553 -0.259,0.607 -0.304,1.32 -0.561,1.947 C -2.728,4.21 -3.094,4.571 -3.279,4.999 -3.782,6.171 -3.906,7.551 -4.836,8.366 -4.827,7.374 -4.715,6.361 -4.867,5.387 -4.905,5.135 -5.058,4.909 -5.079,4.661 -5.112,4.289 -5.093,3.731 -5.042,3.377 c 0.07,-0.484 0.478,-0.87 0.439,-1.581 -0.046,-0.915 -0.59,-2.057 -0.63,-3.049 -0.009,-0.218 0.068,-0.515 0.019,-0.686 -0.178,-0.612 -2.405,-1.044 -2.909,-0.478 0.486,0.414 1.017,0.78 1.647,1.034 0.056,0.667 0.343,1.268 0.356,1.912 0.015,0.909 -0.289,1.877 -0.25,2.855 0.011,0.275 0.1,0.556 0.08,0.82 -0.062,0.808 -0.705,1.469 -0.821,2.333 -0.04,0.289 -0.005,0.596 -0.054,0.919 C -7.248,8 -7.39,8.683 -7.313,9.435 c 0.155,1.54 0.868,2.934 0.471,4.704 -0.523,0.243 -0.444,-0.2 -0.711,-0.566 -0.124,-0.165 -0.381,-0.256 -0.522,-0.438 -0.324,-0.415 -0.442,-0.999 -0.701,-1.397 -0.27,-0.411 -0.73,-0.699 -1.01,-1.104 -0.649,-0.928 -0.925,-2.121 -1.982,-2.53 -0.189,0.06 -0.287,0.204 -0.448,0.293 0.211,0.32 0.424,0.891 -0.19,0.924 0.172,0.509 1.007,0.545 1.324,0.957 0.354,0.459 0.588,1.188 0.994,1.839 0.19,0.306 0.527,0.533 0.719,0.842 0.169,0.261 0.25,0.63 0.406,0.945 0.156,0.31 0.42,0.589 0.493,0.81 0.187,0.569 0.061,0.953 0.374,1.312 0.165,0.188 0.532,0.486 0.714,0.568 0.588,0.263 1.765,0.026 1.948,0.608 0.1,0.317 -0.317,0.505 -0.472,0.796 -0.165,0.315 -0.311,1.043 -0.21,1.524 0.175,0.862 1.097,0.895 1.997,0.651 0.941,-0.551 0.073,-2.387 0.601,-3.191 0.641,-0.393 1.692,-0.408 2.161,-0.959 0.245,-1.074 0.144,-1.85 0.436,-2.771 0.111,-0.344 0.173,-0.721 0.278,-1.022 C -0.31,11.3 0.14,10.513 0.247,9.304 0.319,8.482 0.312,7.232 -0.131,6.75 -0.329,6.894 -0.23,7.306 -0.234,7.628 -0.51,7.821 -0.68,7.472 -0.791,7.511 c 0,0.546 0.361,0.957 0.335,1.502 -0.027,0.703 -0.751,1.021 -1.033,1.6 -0.243,0.514 -0.228,1.191 -0.384,1.763 -0.163,0.581 -0.497,0.989 -0.628,1.492 -0.677,-1.048 -0.201,-2.639 0.202,-4.047 0.281,-0.99 0.593,-2.06 0.65,-3.1 0.047,-0.86 -0.057,-1.308 0.192,-1.98 C -1.221,4.113 -0.812,3.339 -0.538,2.545 -0.234,1.678 -0.287,0.616 0,0" /></g><g
       transform="translate(259.386,510.507)"
       id="g3222"
       style="fill:#c5291c;fill-opacity:1;stroke:#c5291c;stroke-opacity:1"><path
         inkscape:connector-curvature="0"
         id="path3224"
         style="fill:#c5291c;stroke:#c5291c;stroke-width:0.46799998999999998;stroke-linecap:butt;stroke-linejoin:miter;stroke-miterlimit:4;stroke-opacity:1;stroke-dasharray:none;fill-opacity:1"
         d="m 0,0 c 0.378,-0.81 1.934,-2.157 1.292,-3.125 -0.75,0.028 -1.141,0.674 -1.508,1.21 -0.153,0.218 -0.374,0.421 -0.437,0.567 -0.213,0.496 -0.16,1.076 -0.389,1.622 -0.232,0.551 -0.706,0.99 -0.945,1.553 -0.259,0.607 -0.304,1.32 -0.561,1.947 C -2.728,4.21 -3.094,4.571 -3.279,4.999 -3.782,6.171 -3.906,7.551 -4.836,8.366 -4.827,7.374 -4.715,6.361 -4.867,5.387 -4.905,5.135 -5.058,4.909 -5.079,4.661 -5.112,4.289 -5.093,3.731 -5.042,3.377 c 0.07,-0.484 0.478,-0.87 0.439,-1.581 -0.046,-0.915 -0.59,-2.057 -0.63,-3.049 -0.009,-0.218 0.068,-0.515 0.019,-0.686 -0.178,-0.612 -2.405,-1.044 -2.909,-0.478 0.486,0.414 1.017,0.78 1.647,1.034 0.056,0.667 0.343,1.268 0.356,1.912 0.015,0.909 -0.289,1.877 -0.25,2.855 0.011,0.275 0.1,0.556 0.08,0.82 -0.062,0.808 -0.705,1.469 -0.821,2.333 -0.04,0.289 -0.005,0.596 -0.054,0.919 C -7.248,8 -7.39,8.683 -7.313,9.435 c 0.155,1.54 0.868,2.934 0.471,4.704 -0.523,0.243 -0.444,-0.2 -0.711,-0.566 -0.124,-0.165 -0.381,-0.256 -0.522,-0.438 -0.324,-0.415 -0.442,-0.999 -0.701,-1.397 -0.27,-0.411 -0.73,-0.699 -1.01,-1.104 -0.649,-0.928 -0.925,-2.121 -1.982,-2.53 -0.189,0.06 -0.287,0.204 -0.448,0.293 0.211,0.32 0.424,0.891 -0.19,0.924 0.172,0.509 1.007,0.545 1.324,0.957 0.354,0.459 0.588,1.188 0.994,1.839 0.19,0.306 0.527,0.533 0.719,0.842 0.169,0.261 0.25,0.63 0.406,0.945 0.156,0.31 0.419,0.589 0.493,0.81 0.187,0.569 0.061,0.953 0.374,1.312 0.165,0.188 0.532,0.486 0.714,0.568 0.588,0.263 1.765,0.026 1.948,0.608 0.1,0.317 -0.317,0.505 -0.472,0.796 -0.165,0.315 -0.311,1.043 -0.21,1.524 0.175,0.862 1.097,0.895 1.997,0.651 0.941,-0.551 0.073,-2.387 0.601,-3.191 0.641,-0.393 1.692,-0.408 2.161,-0.959 0.245,-1.074 0.144,-1.85 0.436,-2.771 0.111,-0.344 0.173,-0.721 0.278,-1.022 C -0.31,11.3 0.14,10.513 0.247,9.304 0.319,8.482 0.312,7.232 -0.131,6.75 -0.329,6.894 -0.23,7.306 -0.234,7.628 -0.51,7.821 -0.68,7.472 -0.791,7.511 c 0,0.546 0.361,0.957 0.335,1.502 -0.027,0.703 -0.751,1.021 -1.033,1.6 -0.243,0.514 -0.228,1.191 -0.384,1.763 -0.163,0.581 -0.497,0.989 -0.628,1.492 -0.677,-1.048 -0.201,-2.639 0.202,-4.047 0.281,-0.99 0.593,-2.06 0.65,-3.1 0.047,-0.86 -0.057,-1.308 0.192,-1.98 C -1.221,4.113 -0.812,3.339 -0.538,2.545 -0.234,1.678 -0.287,0.616 0,0" /></g><g
       transform="translate(233.127,513.485)"
       id="g3226"><path
         inkscape:connector-curvature="0"
         id="path3228"
         style="fill:#c5291c;fill-opacity:1;fill-rule:evenodd;stroke:none"
         d="M 0,0 C 0.464,0.238 0.699,0.967 0.672,1.538 0.444,1.028 0.257,0.481 0,0 m 1.442,13.23 0.142,0 0,-0.049 C 4.465,13.275 4.727,8.768 3.076,7.311 3.189,6.666 3.32,6.257 3.171,5.674 2.997,4.985 2.297,4.447 2.355,3.848 2.381,3.56 2.743,3.41 2.788,3.174 2.833,2.919 2.595,2.26 2.501,1.972 2.128,0.877 1.474,0.023 1.153,-1.155 c -0.407,-0.25 -1.378,-0.193 -1.635,0.145 -0.023,0.263 0.257,0.479 0.146,0.67 -0.377,-0.044 -0.94,-0.139 -1.297,-0.047 -0.125,0.741 0.659,0.928 0.911,1.396 0.261,0.481 0.232,1.026 0.528,1.586 C -0.543,2.875 -0.909,3.382 -1.203,3.56 -2.75,2.846 -4.28,1.659 -6.539,1.972 -7.013,0.986 -6.463,-1.023 -7.401,-1.541 l -1.11,0 c -0.116,0.09 -0.31,0.106 -0.525,0.095 -0.211,0.102 0.081,0.249 -0.098,0.436 -0.199,0.206 -0.483,-0.071 -0.575,0.241 -0.128,0.418 0.911,1.065 0.962,1.683 0.099,1.267 -0.87,1.401 -1.444,2.165 -0.544,0.724 -0.32,1.732 -0.434,2.693 -0.085,0.723 -0.372,1.188 -0.721,1.733 -0.502,-0.191 -0.971,0.193 -1.487,0.239 -0.336,0.031 -0.651,-0.12 -0.966,-0.096 -0.89,0.06 -1.347,0.834 -1.489,1.73 l 0,0.339 c 0.285,0.409 0.766,0.362 1.252,0.623 0.861,0.472 1.505,1.687 2.932,1.445 1.495,-0.251 1.671,-2.658 2.741,-3.511 1.936,-1.55 5.242,-0.429 7.591,0.192 1.017,0.267 2.065,0.581 2.981,0.047 1.06,0.992 0.699,3.672 -0.862,3.896 -0.291,0.043 -0.848,-0.218 -1.06,0.146 0.189,0.421 0.718,0.5 1.155,0.675" /></g><g
       transform="translate(233.127,513.485)"
       id="g3230"><path
         inkscape:connector-curvature="0"
         id="path3232"
         style="fill:none;stroke:#c5291c;stroke-width:0.46799999;stroke-linecap:butt;stroke-linejoin:miter;stroke-miterlimit:4;stroke-opacity:1;stroke-dasharray:none"
         d="M 0,0 C 0.464,0.238 0.699,0.967 0.672,1.538 0.444,1.028 0.257,0.481 0,0" /><g
         transform="translate(1.442,13.23)"
         id="g3234"><path
           inkscape:connector-curvature="0"
           id="path3236"
           style="fill:none;stroke:#c5291c;stroke-width:0.46799999;stroke-linecap:butt;stroke-linejoin:miter;stroke-miterlimit:4;stroke-opacity:1;stroke-dasharray:none"
           d="m 0,0 0.142,0 0,-0.049 C 3.023,0.045 3.285,-4.462 1.634,-5.919 1.747,-6.564 1.878,-6.973 1.729,-7.556 1.556,-8.245 0.855,-8.783 0.914,-9.382 0.939,-9.67 1.301,-9.82 1.346,-10.056 1.392,-10.311 1.153,-10.97 1.06,-11.258 c -0.374,-1.095 -1.028,-1.949 -1.349,-3.127 -0.407,-0.25 -1.378,-0.193 -1.635,0.145 -0.023,0.263 0.257,0.479 0.146,0.67 -0.377,-0.044 -0.94,-0.139 -1.297,-0.047 -0.125,0.741 0.66,0.928 0.911,1.396 0.261,0.481 0.232,1.026 0.528,1.586 -0.349,0.28 -0.715,0.788 -1.008,0.965 -1.548,-0.714 -3.078,-1.901 -5.337,-1.588 -0.474,-0.986 0.076,-2.995 -0.862,-3.513 l -1.11,0 c -0.116,0.09 -0.31,0.106 -0.525,0.095 -0.211,0.102 0.081,0.249 -0.098,0.436 -0.199,0.206 -0.483,-0.071 -0.575,0.241 -0.128,0.418 0.911,1.065 0.962,1.683 0.099,1.267 -0.87,1.401 -1.444,2.165 -0.544,0.724 -0.32,1.732 -0.434,2.693 -0.085,0.723 -0.371,1.188 -0.721,1.733 -0.502,-0.191 -0.971,0.193 -1.487,0.239 -0.336,0.031 -0.651,-0.12 -0.966,-0.096 -0.89,0.06 -1.347,0.834 -1.489,1.73 l 0,0.339 c 0.285,0.409 0.766,0.362 1.252,0.623 0.861,0.472 1.505,1.687 2.932,1.445 1.495,-0.251 1.671,-2.658 2.741,-3.511 1.936,-1.55 5.243,-0.429 7.591,0.192 1.017,0.267 2.066,0.581 2.982,0.047 1.06,0.992 0.698,3.672 -0.863,3.896 -0.291,0.043 -0.848,-0.218 -1.06,0.146 0.189,0.421 0.718,0.5 1.155,0.675" /></g></g><g
       transform="translate(203.711,509.578)"
       id="g3238"><path
         inkscape:connector-curvature="0"
         id="path3240"
         style="fill:#4445a5;fill-opacity:1;fill-rule:nonzero;stroke:none"
         d="m 0,0 c 0.378,-0.81 1.935,-2.157 1.292,-3.124 -0.75,0.026 -1.141,0.674 -1.507,1.209 -0.154,0.218 -0.375,0.422 -0.437,0.566 -0.214,0.497 -0.161,1.076 -0.39,1.623 -0.231,0.55 -0.705,0.991 -0.945,1.553 -0.258,0.607 -0.304,1.319 -0.56,1.947 -0.181,0.435 -0.546,0.797 -0.731,1.224 -0.504,1.173 -0.627,2.555 -1.558,3.367 0.01,-0.992 0.121,-2.004 -0.03,-2.977 -0.039,-0.252 -0.192,-0.48 -0.212,-0.727 -0.033,-0.372 -0.015,-0.93 0.036,-1.284 0.07,-0.484 0.478,-0.87 0.439,-1.581 -0.045,-0.914 -0.59,-2.058 -0.63,-3.049 -0.009,-0.218 0.069,-0.516 0.019,-0.686 -0.177,-0.613 -2.405,-1.043 -2.908,-0.479 0.485,0.414 1.017,0.78 1.646,1.035 0.057,0.667 0.343,1.269 0.356,1.911 0.015,0.91 -0.288,1.877 -0.25,2.857 0.012,0.274 0.101,0.555 0.08,0.818 -0.062,0.81 -0.704,1.47 -0.821,2.334 -0.04,0.288 -0.004,0.596 -0.054,0.917 -0.083,0.545 -0.225,1.23 -0.147,1.981 0.154,1.541 0.868,2.933 0.47,4.705 -0.522,0.243 -0.443,-0.201 -0.711,-0.567 -0.123,-0.166 -0.381,-0.256 -0.522,-0.438 -0.324,-0.414 -0.442,-0.998 -0.701,-1.397 -0.269,-0.411 -0.729,-0.7 -1.009,-1.103 -0.65,-0.93 -0.925,-2.121 -1.983,-2.531 -0.189,0.06 -0.287,0.205 -0.447,0.292 0.21,0.322 0.423,0.891 -0.191,0.926 0.173,0.508 1.007,0.544 1.324,0.955 0.354,0.46 0.589,1.189 0.994,1.839 0.19,0.307 0.527,0.534 0.72,0.843 0.168,0.261 0.25,0.63 0.406,0.944 0.155,0.31 0.419,0.589 0.493,0.81 0.186,0.57 0.061,0.953 0.373,1.312 0.165,0.189 0.533,0.487 0.714,0.569 0.588,0.263 1.765,0.025 1.949,0.607 0.099,0.319 -0.318,0.505 -0.473,0.797 -0.164,0.314 -0.31,1.042 -0.21,1.524 0.176,0.862 1.097,0.894 1.997,0.651 0.941,-0.552 0.074,-2.387 0.601,-3.192 0.642,-0.392 1.693,-0.408 2.161,-0.958 0.245,-1.074 0.144,-1.851 0.436,-2.771 0.112,-0.344 0.173,-0.721 0.278,-1.023 C -0.31,11.299 0.14,10.514 0.248,9.304 0.319,8.481 0.313,7.232 -0.131,6.749 -0.329,6.894 -0.23,7.307 -0.234,7.628 -0.51,7.821 -0.68,7.472 -0.791,7.512 c 0,0.546 0.361,0.956 0.336,1.501 -0.028,0.703 -0.752,1.021 -1.033,1.6 -0.243,0.514 -0.228,1.192 -0.385,1.763 -0.163,0.581 -0.496,0.988 -0.627,1.491 -0.678,-1.048 -0.201,-2.639 0.201,-4.046 0.282,-0.99 0.593,-2.059 0.65,-3.099 C -1.602,5.86 -1.706,5.413 -1.456,4.74 -1.22,4.113 -0.812,3.338 -0.537,2.544 -0.234,1.679 -0.287,0.614 0,0" /></g><g
       id="g3242"><g
         clip-path="url(#clipPath3246)"
         id="g3244"><g
           transform="translate(203.711,509.578)"
           id="g3250"><path
             inkscape:connector-curvature="0"
             id="path3252"
             style="fill:none;stroke:#4445a5;stroke-width:0.46799999;stroke-linecap:butt;stroke-linejoin:miter;stroke-miterlimit:4;stroke-opacity:1;stroke-dasharray:none"
             d="m 0,0 c 0.378,-0.81 1.935,-2.157 1.292,-3.124 -0.75,0.026 -1.141,0.674 -1.507,1.209 -0.154,0.218 -0.375,0.422 -0.437,0.566 -0.214,0.497 -0.161,1.076 -0.39,1.623 -0.231,0.55 -0.705,0.991 -0.945,1.553 -0.258,0.607 -0.304,1.319 -0.56,1.947 -0.181,0.435 -0.546,0.797 -0.731,1.224 -0.504,1.173 -0.627,2.555 -1.558,3.367 0.01,-0.992 0.121,-2.004 -0.03,-2.977 -0.039,-0.252 -0.192,-0.48 -0.212,-0.727 -0.033,-0.372 -0.015,-0.93 0.036,-1.284 0.07,-0.484 0.478,-0.87 0.439,-1.581 -0.045,-0.914 -0.59,-2.058 -0.63,-3.049 -0.009,-0.218 0.069,-0.516 0.019,-0.686 -0.177,-0.613 -2.405,-1.043 -2.908,-0.479 0.485,0.414 1.017,0.78 1.646,1.035 0.057,0.667 0.343,1.269 0.356,1.911 0.015,0.91 -0.288,1.877 -0.25,2.857 0.012,0.274 0.101,0.555 0.08,0.818 -0.062,0.81 -0.704,1.47 -0.821,2.334 -0.04,0.288 -0.004,0.596 -0.054,0.917 -0.083,0.545 -0.224,1.23 -0.147,1.981 0.154,1.541 0.868,2.933 0.47,4.705 -0.522,0.243 -0.443,-0.201 -0.711,-0.567 -0.123,-0.166 -0.381,-0.256 -0.522,-0.438 -0.324,-0.414 -0.442,-0.998 -0.701,-1.397 -0.269,-0.411 -0.729,-0.7 -1.009,-1.103 -0.65,-0.93 -0.925,-2.121 -1.983,-2.531 -0.189,0.06 -0.287,0.205 -0.447,0.292 0.21,0.322 0.423,0.891 -0.191,0.926 0.173,0.508 1.007,0.544 1.324,0.955 0.354,0.46 0.589,1.189 0.994,1.839 0.19,0.307 0.527,0.534 0.72,0.843 0.168,0.261 0.25,0.63 0.406,0.944 0.155,0.31 0.419,0.589 0.492,0.81 0.187,0.57 0.062,0.953 0.374,1.312 0.165,0.189 0.533,0.487 0.714,0.569 0.588,0.263 1.765,0.025 1.949,0.607 0.099,0.319 -0.318,0.505 -0.473,0.797 -0.164,0.314 -0.31,1.042 -0.21,1.524 0.176,0.862 1.097,0.894 1.997,0.651 0.941,-0.552 0.074,-2.387 0.601,-3.192 0.642,-0.392 1.693,-0.408 2.161,-0.958 0.245,-1.074 0.144,-1.851 0.436,-2.771 0.112,-0.344 0.173,-0.721 0.278,-1.023 C -0.31,11.299 0.14,10.514 0.248,9.304 0.319,8.481 0.313,7.232 -0.131,6.749 -0.329,6.894 -0.23,7.307 -0.234,7.628 -0.51,7.821 -0.68,7.472 -0.791,7.512 c 0,0.546 0.361,0.956 0.336,1.501 -0.028,0.703 -0.752,1.021 -1.033,1.6 -0.243,0.514 -0.228,1.192 -0.385,1.763 -0.163,0.581 -0.496,0.988 -0.627,1.491 -0.678,-1.048 -0.202,-2.639 0.201,-4.046 0.282,-0.99 0.593,-2.059 0.65,-3.099 C -1.602,5.86 -1.706,5.413 -1.456,4.74 -1.22,4.113 -0.812,3.338 -0.537,2.544 -0.234,1.679 -0.287,0.614 0,0" /></g></g></g><g
       transform="translate(177.452,512.555)"
       id="g3254"><path
         inkscape:connector-curvature="0"
         id="path3256"
         style="fill:#4445a5;fill-opacity:1;fill-rule:evenodd;stroke:none"
         d="M 0,0 C 0.465,0.239 0.699,0.967 0.673,1.539 0.445,1.03 0.257,0.482 0,0 m 1.442,13.23 0.142,0 0,-0.047 C 4.466,13.275 4.727,8.768 3.077,7.312 3.19,6.667 3.32,6.257 3.172,5.675 2.998,4.985 2.298,4.449 2.356,3.848 2.381,3.561 2.743,3.411 2.788,3.175 2.833,2.92 2.595,2.261 2.502,1.972 2.128,0.878 1.474,0.024 1.153,-1.155 c -0.406,-0.249 -1.378,-0.193 -1.634,0.146 -0.024,0.263 0.256,0.478 0.145,0.671 -0.377,-0.045 -0.94,-0.14 -1.297,-0.048 -0.124,0.741 0.66,0.928 0.911,1.395 0.261,0.483 0.232,1.028 0.528,1.587 C -0.543,2.875 -0.909,3.383 -1.202,3.561 -2.75,2.847 -4.28,1.66 -6.539,1.972 -7.013,0.987 -6.462,-1.022 -7.401,-1.541 l -1.11,0 c -0.116,0.09 -0.31,0.106 -0.525,0.095 -0.211,0.103 0.081,0.249 -0.098,0.437 -0.198,0.206 -0.482,-0.071 -0.575,0.241 -0.128,0.417 0.911,1.065 0.962,1.683 0.099,1.266 -0.869,1.401 -1.444,2.166 -0.544,0.722 -0.319,1.73 -0.434,2.692 -0.085,0.723 -0.371,1.187 -0.72,1.732 -0.503,-0.19 -0.972,0.195 -1.488,0.24 -0.336,0.029 -0.65,-0.119 -0.966,-0.097 -0.889,0.06 -1.347,0.834 -1.489,1.73 l 0,0.339 c 0.286,0.41 0.766,0.364 1.253,0.624 0.86,0.471 1.504,1.686 2.931,1.446 1.495,-0.251 1.671,-2.66 2.741,-3.513 1.936,-1.549 5.242,-0.429 7.592,0.193 1.016,0.267 2.065,0.581 2.98,0.047 1.06,0.991 0.699,3.672 -0.862,3.897 -0.29,0.042 -0.848,-0.22 -1.059,0.145 0.188,0.42 0.717,0.499 1.154,0.674" /></g><g
       transform="translate(177.452,512.555)"
       id="g3258"><path
         inkscape:connector-curvature="0"
         id="path3260"
         style="fill:none;stroke:#4445a5;stroke-width:0.46799999;stroke-linecap:butt;stroke-linejoin:miter;stroke-miterlimit:4;stroke-opacity:1;stroke-dasharray:none"
         d="M 0,0 C 0.465,0.239 0.699,0.967 0.673,1.539 0.445,1.03 0.257,0.482 0,0" /><g
         transform="translate(1.442,13.23)"
         id="g3262"><path
           inkscape:connector-curvature="0"
           id="path3264"
           style="fill:none;stroke:#4445a5;stroke-width:0.46799999;stroke-linecap:butt;stroke-linejoin:miter;stroke-miterlimit:4;stroke-opacity:1;stroke-dasharray:none"
           d="m 0,0 0.142,0 0,-0.047 C 3.024,0.045 3.285,-4.462 1.635,-5.918 1.748,-6.563 1.878,-6.973 1.73,-7.555 1.556,-8.245 0.856,-8.781 0.914,-9.382 c 0.025,-0.287 0.387,-0.437 0.432,-0.672 0.046,-0.256 -0.193,-0.915 -0.286,-1.204 -0.374,-1.094 -1.028,-1.948 -1.349,-3.127 -0.406,-0.249 -1.378,-0.193 -1.634,0.146 -0.024,0.263 0.256,0.478 0.145,0.671 -0.377,-0.045 -0.94,-0.14 -1.297,-0.048 -0.124,0.741 0.66,0.928 0.911,1.395 0.262,0.483 0.232,1.028 0.528,1.587 -0.348,0.279 -0.715,0.787 -1.008,0.965 -1.548,-0.714 -3.078,-1.901 -5.337,-1.589 -0.474,-0.985 0.077,-2.994 -0.862,-3.513 l -1.11,0 c -0.116,0.09 -0.31,0.106 -0.524,0.095 -0.211,0.103 0.08,0.249 -0.099,0.437 -0.198,0.206 -0.482,-0.071 -0.575,0.241 -0.128,0.417 0.911,1.065 0.962,1.683 0.099,1.266 -0.869,1.401 -1.444,2.166 -0.544,0.722 -0.319,1.73 -0.434,2.692 -0.085,0.723 -0.37,1.187 -0.72,1.732 -0.502,-0.19 -0.972,0.195 -1.488,0.24 -0.336,0.029 -0.65,-0.119 -0.966,-0.097 -0.889,0.06 -1.347,0.835 -1.489,1.73 l 0,0.339 c 0.286,0.41 0.766,0.364 1.253,0.624 0.86,0.471 1.504,1.686 2.931,1.446 1.495,-0.251 1.671,-2.66 2.741,-3.513 1.936,-1.549 5.243,-0.429 7.592,0.193 1.016,0.267 2.065,0.581 2.981,0.047 1.06,0.991 0.698,3.672 -0.863,3.897 -0.29,0.042 -0.848,-0.22 -1.059,0.145 C -0.966,-0.254 -0.436,-0.175 0,0" /></g></g><g
       transform="translate(233.593,609.222)"
       id="g3190"><path
         inkscape:connector-curvature="0"
         id="path3192"
         style="fill:#131413;fill-opacity:1;fill-rule:nonzero;stroke:none"
         d="M 0,0 63.765,-63.814" /></g><g
       transform="translate(233.593,609.222)"
       id="g3194"
       style="stroke:#000000;stroke-opacity:1;stroke-linecap:round"><path
         inkscape:connector-curvature="0"
         id="path3196"
         style="fill:none;stroke:#000000;stroke-width:2;stroke-linecap:round;stroke-linejoin:miter;stroke-miterlimit:4;stroke-opacity:1;stroke-dasharray:none"
         d="M 0,0 63.765,-63.814" /></g><g
       transform="translate(211.657,587.172)"
       id="g3198"><path
         inkscape:connector-curvature="0"
         id="path3200"
         style="fill:#c5291c;fill-opacity:1;fill-rule:nonzero;stroke:none"
         d="M 0,0 25.147,-25.165" /></g><g
       transform="translate(211.657,587.172)"
       id="g3202"
       style="stroke:#c5291c;stroke-opacity:1;stroke-linecap:round"><path
         inkscape:connector-curvature="0"
         id="path3204"
         style="fill:none;stroke:#c5291c;stroke-width:2;stroke-linecap:round;stroke-linejoin:miter;stroke-miterlimit:4;stroke-opacity:1;stroke-dasharray:none"
         d="M 0.19445436,-0.19445436 25.147,-25.165"
         sodipodi:nodetypes="cc" /></g><g
       transform="translate(185.265,561.263)"
       id="g3206"
       style="stroke:#4445a5;stroke-opacity:1;stroke-linecap:round"><path
         inkscape:connector-curvature="0"
         id="path3208"
         style="fill:none;stroke:#4445a5;stroke-width:2;stroke-linecap:round;stroke-linejoin:miter;stroke-miterlimit:4;stroke-opacity:1;stroke-dasharray:none"
         d="M 0.4375,-0.45 16.765,-16.778"
         sodipodi:nodetypes="cc" /></g><g
       transform="translate(168.849,543.934)"
       id="g3266"
       style="fill:#4445a5;fill-opacity:1;stroke:#4445a5;stroke-opacity:1;stroke-linecap:round"><path
         inkscape:connector-curvature="0"
         id="path3268"
         style="fill:#4445a5;fill-opacity:1;stroke:#4445a5;stroke-width:2;stroke-linecap:round;stroke-linejoin:miter;stroke-miterlimit:4;stroke-opacity:1;stroke-dasharray:none"
         d="M 0,0 42.883223,42.941223"
         sodipodi:nodetypes="cc" /></g><g
       transform="translate(236.492,562.366)"
       id="g3270"><path
         inkscape:connector-curvature="0"
         id="path3272"
         style="fill:#c5291c;fill-opacity:1;fill-rule:nonzero;stroke:none"
         d="M 0,0 16.765,-16.777" /></g><g
       transform="translate(236.492,562.366)"
       id="g3274"
       style="stroke:#c5291c;stroke-opacity:1;stroke-linecap:round"><path
         inkscape:connector-curvature="0"
         id="path3276"
         style="fill:none;stroke:#c5291c;stroke-width:2;stroke-linecap:round;stroke-linejoin:miter;stroke-miterlimit:4;stroke-opacity:1;stroke-dasharray:none"
         d="M 0,0 16.765,-16.777" /></g><g
       transform="translate(220.518,545.038)"
       id="g3278"><path
         inkscape:connector-curvature="0"
         id="path3280"
         style="fill:#c5291c;fill-opacity:1;fill-rule:nonzero;stroke:none"
         d="M 0,0 16.765,16.777" /></g><g
       transform="translate(220.518,545.038)"
       id="g3282"
       style="stroke:#c5291c;stroke-opacity:1;stroke-linecap:round"><path
         inkscape:connector-curvature="0"
         id="path3284"
         style="fill:none;stroke:#c5291c;stroke-width:2;stroke-linecap:round;stroke-linejoin:miter;stroke-miterlimit:4;stroke-opacity:1;stroke-dasharray:none"
         d="M 0,0 16.641256,16.653256"
         sodipodi:nodetypes="cc" /></g><text
       id="text3290"
       transform="scale(1,-1)"
       x="243.8161"
       y="-616.25897"
       style="font-style:normal;font-variant:normal;font-weight:normal;font-stretch:normal;font-family:Latin Modern Sans;-inkscape-font-specification:Latin Modern Sans"><tspan
         id="tspan3292"
         y="-616.25897"
         x="243.8161"
         style="font-size:8px;font-style:normal;font-variant:normal;font-weight:normal;font-stretch:normal;writing-mode:lr-tb;fill:#131413;fill-opacity:1;fill-rule:nonzero;stroke:none;font-family:Latin Modern Sans;-inkscape-font-specification:Latin Modern Sans">S\textsubscript{1}</tspan></text>
<text
       id="text3304"
       transform="scale(1,-1)"
       x="163.2618"
       y="-560.74463"
       style="font-style:normal;font-variant:normal;font-weight:normal;font-stretch:normal;font-family:Latin Modern Sans;-inkscape-font-specification:Latin Modern Sans"><tspan
         id="tspan3306"
         y="-560.74463"
         x="163.2618"
         style="font-size:8px;font-style:normal;font-variant:normal;font-weight:normal;font-stretch:normal;writing-mode:lr-tb;fill:#131413;fill-opacity:1;fill-rule:nonzero;stroke:none;font-family:Latin Modern Sans;-inkscape-font-specification:Latin Modern Sans">S\textsubscript{2}</tspan></text>
<text
       id="text3312"
       transform="scale(1,-1)"
       x="244.2487"
       y="-560.74463"
       style="font-style:normal;font-variant:normal;font-weight:normal;font-stretch:normal;font-family:Latin Modern Sans;-inkscape-font-specification:Latin Modern Sans"><tspan
         id="tspan3314"
         y="-560.74463"
         x="244.2487"
         style="font-size:8px;font-style:normal;font-variant:normal;font-weight:normal;font-stretch:normal;writing-mode:lr-tb;fill:#131413;fill-opacity:1;fill-rule:nonzero;stroke:none;font-family:Latin Modern Sans;-inkscape-font-specification:Latin Modern Sans">S\textsubscript{2}</tspan></text>
<g
       id="g3320"><g
         clip-path="url(#clipPath3324)"
         id="g3322"><g
           transform="translate(421.06,593.393)"
           id="g3328"><path
             inkscape:connector-curvature="0"
             id="path3330"
             style="fill:#d9d9d9;fill-opacity:1;fill-rule:nonzero;stroke:none"
             d="M 0,0 C 1.424,-0.166 3.216,1.209 4.164,2.62 2.774,1.76 1.404,0.744 0,0 m 26.418,29.434 0.308,-0.226 -0.082,-0.113 C 33.03,24.745 25.654,13.523 19.526,12.648 18.634,10.922 18.193,9.735 16.848,8.574 15.256,7.195 12.8,7.018 11.868,5.488 11.416,4.757 11.932,3.825 11.615,3.189 11.265,2.505 9.59,1.301 8.878,0.758 6.145,-1.273 3.227,-2.283 0.458,-4.602 c -1.319,0.047 -3.316,1.724 -3.277,2.944 0.415,0.667 1.399,0.739 1.497,1.377 -0.892,0.492 -2.277,1.156 -2.884,1.944 1.035,1.973 3.06,1.177 4.426,1.9 1.412,0.741 2.312,2.093 3.935,2.967 -0.26,1.224 -0.158,3.022 -0.477,3.912 -4.601,0.746 -9.997,0.326 -14.324,4.659 -2.761,-1.611 -5.112,-7.302 -8.052,-7.056 l -2.395,1.761 c -0.094,0.401 -0.486,0.746 -0.968,1.061 -0.273,0.58 0.614,0.468 0.555,1.203 -0.063,0.81 -1.165,0.595 -0.818,1.49 0.46,1.203 3.847,1.109 5.044,2.507 2.445,2.882 0.593,4.741 0.697,7.485 0.1,2.597 2.358,4.656 3.804,7.145 1.093,1.868 1.292,3.438 1.499,5.298 -1.423,0.34 -1.758,2.007 -2.794,2.934 -0.673,0.605 -1.612,0.747 -2.255,1.3 -1.816,1.557 -1.439,4.139 -0.169,6.513 l 0.598,0.812 c 1.34,0.531 2.294,-0.344 3.803,-0.491 2.689,-0.237 6.22,1.655 8.877,-1.184 2.787,-2.975 -1.073,-9.029 -0.265,-12.773 1.451,-6.786 10.564,-9.346 16.734,-11.583 2.665,-0.971 5.486,-1.883 6.522,-4.614 4.037,0.695 7.976,7.695 5.001,10.711 -0.555,0.562 -2.218,0.819 -2.032,2.03 1.146,0.709 2.429,0.059 3.678,-0.216" /></g><g
           transform="translate(435.824,564.737)"
           id="g3332"><path
             inkscape:connector-curvature="0"
             id="path3334"
             style="fill:#d9d9d9;fill-opacity:1;fill-rule:evenodd;stroke:none"
             d="m 0,0 c -0.761,-0.698 -2.221,-0.777 -2.959,-1.535 -0.419,-0.426 -0.506,-1.408 -0.816,-2.233 -0.592,-1.594 -1.716,-3.152 -0.652,-4.8 1.971,0.731 3.599,1.53 5.729,1.67 2.111,0.137 6.286,0.355 6.362,-3.41 0.011,-0.531 -0.346,-1.329 -0.501,-2.169 -0.155,-0.86 -0.086,-1.808 -0.183,-2.119 -0.541,-1.687 -1.772,-3.144 -3.081,-4.676 0.538,-1.035 1.247,-0.785 1.834,-1.468 1.217,0.441 2.401,0.665 3.567,0.735 0.251,0.467 0.393,1.225 1.068,1.898 0.645,0.255 0.095,-0.921 0.24,-1.255 0.999,-0.211 1.763,1.555 2.675,1.672 -0.085,-0.325 -0.375,-0.626 -0.736,-0.919 0.567,-0.066 1.156,0.032 1.791,0.471 -2.255,-2.129 -6.191,-4.943 -8.866,-5.314 -1.183,0.568 -2.413,0.762 -3.533,1.795 -2.996,-2.971 -5.113,-6.325 -9.188,-9.147 -1.385,-0.957 -3.098,-2.126 -4.526,-2.544 -0.675,-2.141 0.931,-4.392 0.221,-6.65 -0.089,-0.269 -0.631,-1.397 -0.962,-1.806 -0.164,-0.202 -0.468,-0.155 -0.769,-0.404 -0.275,-0.232 -0.363,-0.652 -0.622,-0.833 -0.913,-0.634 -1.85,-0.885 -2.906,-1.136 1.668,-0.759 4.775,-1.338 6.114,-4.495 -0.275,-0.26 -0.521,-0.331 -0.716,-0.005 -0.07,-0.774 0.571,-1.639 0.588,-2.422 -0.453,0.097 -1.073,1.089 -0.921,1.449 -0.611,-0.363 0.108,-0.399 -0.024,-0.915 -1.701,-0.26 -3.262,0.489 -4.778,1.562 -2.348,0.329 -5.228,0.482 -7.481,4.171 -1.897,3.109 -1.371,6.95 2.862,7.562 -0.722,1.455 -1.935,2.978 -2.46,4.406 -0.391,0.353 -0.854,0.179 -1.256,0.476 -0.19,0.396 0.273,0.706 0.247,1.086 -1.324,1.148 -2.291,2.991 -3.369,4.428 -2.498,-3.889 -6.072,-3.611 -8.597,0.449 -0.734,1.178 -1.108,2.375 -1.053,3.509 0.025,0.484 -0.216,1.572 -0.103,2.253 0.102,0.591 0.51,1.164 0.561,1.86 0.035,0.477 -0.199,1.201 -0.155,1.854 0.074,1.09 0.186,2.228 1.209,2.89 0.466,-0.795 0.187,-0.891 0.383,-1.679 0.221,-0.212 0.303,0.416 0.078,0.598 0.187,0.086 0.311,-0.213 0.462,-0.365 -0.004,1.156 0.12,2.29 -0.138,3.481 0.593,-0.394 0.87,-1.075 1.295,-1.702 0.39,-0.22 -0.044,0.744 0.483,0.543 2.315,-2.415 1.496,-4.411 1.355,-6.497 4.064,3.622 7.35,1.582 10.63,-0.523 1.947,2.326 4.544,4.829 7.635,6.709 0.45,0.27 0.961,0.641 1.338,0.843 0.647,0.34 1.448,0.428 2.135,0.724 1.14,0.496 2.207,1.157 3.303,1.797 -0.034,0.735 -0.072,1.373 -0.127,2.052 -0.122,1.51 -0.136,2.926 0.713,4.488 1.059,1.96 3.434,3.734 4.958,5.748 0.386,0.133 0.296,-0.499 -0.084,-0.603 0.456,-0.261 0.659,0.416 0.97,0.383 C -0.88,1.104 -2.477,1.141 -2.261,0.612 -1.735,0.225 -0.998,1.415 -0.383,1.683 -0.74,0.848 -2.088,0.148 -2.338,-0.699 -1.57,-0.55 -0.761,-0.099 0,0" /></g></g></g><g
       transform="translate(365.821,550.909)"
       id="g3336"><path
         inkscape:connector-curvature="0"
         id="path3338"
         style="fill:#d9d9d9;fill-opacity:1;fill-rule:nonzero;stroke:none"
         d="m 0,0 c 1.148,-2.59 6.31,-7.138 3.839,-9.959 -2.625,0.275 -3.856,2.368 -5.022,4.11 -0.49,0.711 -1.218,1.397 -1.406,1.858 -0.638,1.586 -0.323,3.358 -1.009,5.101 -0.69,1.755 -2.253,3.231 -2.972,5.024 -0.768,1.936 -0.773,4.145 -1.532,6.144 -0.535,1.387 -1.741,2.595 -2.295,3.96 -1.506,3.738 -1.632,8.028 -4.717,10.775 -0.187,-3.064 -0.023,-6.211 -0.767,-9.174 -0.194,-0.767 -0.781,-1.428 -0.905,-2.186 -0.204,-1.137 -0.262,-2.863 -0.162,-3.968 0.142,-1.507 1.484,-2.801 1.193,-4.985 -0.366,-2.804 -2.531,-6.19 -2.892,-9.234 -0.079,-0.671 0.125,-1.608 -0.087,-2.12 -0.759,-1.845 -8.673,-2.61 -10.313,-0.741 1.794,1.156 3.74,2.149 6.01,2.773 0.345,2.042 1.484,3.822 1.674,5.802 0.253,2.8 -0.598,5.858 -0.242,8.866 0.098,0.843 0.473,1.687 0.46,2.506 -0.035,2.507 -2.145,4.707 -2.364,7.397 -0.073,0.9 0.119,1.84 0.016,2.846 -0.169,1.698 -0.516,3.842 -0.077,6.139 0.888,4.709 3.697,8.824 2.696,14.382 -1.778,0.883 -1.597,-0.506 -2.618,-1.566 -0.471,-0.478 -1.395,-0.693 -1.93,-1.219 -1.232,-1.194 -1.774,-2.965 -2.771,-4.127 -1.041,-1.199 -2.715,-1.972 -3.788,-3.147 -2.488,-2.699 -3.72,-6.304 -7.523,-7.295 -0.652,0.23 -0.963,0.701 -1.503,1.014 0.809,0.935 1.681,2.638 -0.466,2.897 0.718,1.524 3.656,1.425 4.86,2.612 1.346,1.327 2.33,3.515 3.898,5.417 0.731,0.896 1.967,1.511 2.713,2.414 0.648,0.765 1.018,1.88 1.633,2.81 0.619,0.914 1.604,1.708 1.913,2.369 0.779,1.71 0.427,2.925 1.602,3.952 0.622,0.537 1.978,1.365 2.632,1.57 2.122,0.664 6.2,-0.369 6.976,1.38 0.42,0.957 -1.001,1.636 -1.482,2.575 -0.508,1.011 -0.858,3.291 -0.399,4.75 0.81,2.613 4.053,2.479 7.156,1.5 3.179,-1.937 -0.27,-7.377 1.401,-9.987 2.16,-1.376 5.851,-1.686 7.373,-3.501 0.622,-3.374 0.091,-5.742 0.91,-8.654 0.32,-1.089 0.448,-2.266 0.752,-3.222 C 1.428,34.909 2.83,32.371 2.94,28.615 3.01,26.061 2.703,22.214 1.044,20.837 0.382,21.332 0.817,22.579 0.872,23.57 c -0.922,0.666 -1.595,-0.368 -1.978,-0.219 0.122,1.684 1.483,2.861 1.511,4.544 0.059,2.175 -2.41,3.339 -3.269,5.194 -0.739,1.646 -0.539,3.732 -0.956,5.53 -0.441,1.832 -1.525,3.176 -1.875,4.759 -2.611,-3.057 -1.291,-8.083 -0.192,-12.524 0.769,-3.124 1.626,-6.497 1.595,-9.718 -0.023,-2.666 -0.49,-4.019 0.234,-6.155 0.69,-1.993 1.948,-4.486 2.734,-7.003 C -0.451,5.233 -0.871,1.969 0,0" /></g><g
       transform="translate(357.43,596.074)"
       id="g3340"><path
         inkscape:connector-curvature="0"
         id="path3342"
         style="fill:#c22725;fill-opacity:1;fill-rule:evenodd;stroke:none"
         d="m 0,0 c -0.182,-2.525 -2.379,-4.426 -4.904,-4.244 -2.524,0.183 -4.425,2.379 -4.243,4.904 0.181,2.526 2.379,4.426 4.904,4.244 C -1.718,4.721 0.183,2.526 0,0" /></g><g
       transform="translate(420.092,614.857)"
       id="g3344"><path
         inkscape:connector-curvature="0"
         id="path3346"
         style="fill:#c22725;fill-opacity:1;fill-rule:evenodd;stroke:none"
         d="m 0,0 c -0.182,-2.524 -2.379,-4.425 -4.904,-4.243 -2.524,0.183 -4.425,2.379 -4.242,4.903 0.18,2.526 2.377,4.426 4.902,4.245 C -1.717,4.722 0.182,2.526 0,0" /></g><g
       transform="translate(356.582,584.316)"
       id="g3348"><path
         inkscape:connector-curvature="0"
         id="path3350"
         style="fill:#647cc3;fill-opacity:1;fill-rule:evenodd;stroke:none"
         d="m 0,0 c -0.183,-2.526 -2.378,-4.426 -4.904,-4.244 -2.525,0.183 -4.426,2.378 -4.244,4.903 0.183,2.527 2.379,4.427 4.904,4.244 C -1.718,4.721 0.182,2.526 0,0" /></g><g
       transform="translate(427.481,538.927)"
       id="g3352"><path
         inkscape:connector-curvature="0"
         id="path3354"
         style="fill:#131413;fill-opacity:1;fill-rule:evenodd;stroke:none"
         d="m 0,0 c -1.501,-2.04 -4.37,-2.479 -6.411,-0.98 -2.04,1.498 -2.481,4.369 -0.982,6.409 1.5,2.041 4.371,2.481 6.411,0.982 C 1.059,4.912 1.499,2.042 0,0" /></g><g
       transform="translate(430.44,607.065)"
       id="g3356"><path
         inkscape:connector-curvature="0"
         id="path3358"
         style="fill:#647cc3;fill-opacity:1;fill-rule:evenodd;stroke:none"
         d="m 0,0 c -1.5,-2.041 -4.369,-2.48 -6.411,-0.98 -2.04,1.499 -2.479,4.369 -0.981,6.409 1.5,2.042 4.37,2.48 6.411,0.982 C 1.06,4.911 1.5,2.041 0,0" /></g><path
       inkscape:connector-curvature="0"
       id="path3360"
       style="fill:none;stroke:#131413;stroke-width:0.75;stroke-linecap:butt;stroke-linejoin:miter;stroke-miterlimit:4;stroke-opacity:1;stroke-dasharray:0.60719, 0.60719;stroke-dashoffset:0"
       d="m 352.858,596.404 62.66,18.783 m -63.51,-30.542 74.737,25.135 m 0,0 -2.961,-68.138 m 0,0 -70.927,54.762 m 70.927,-54.762 -71.776,43.004 m 71.776,-43.004 -8.265,73.545" /><text
       xml:space="preserve"
       style="font-size:11.19999981px;font-style:normal;font-variant:normal;font-weight:normal;font-stretch:normal;text-align:start;writing-mode:lr-tb;text-anchor:start;color:#000000;fill:#000000;fill-opacity:1;fill-rule:nonzero;stroke:none;stroke-width:3.63899994;marker:none;visibility:visible;display:inline;overflow:visible;enable-background:accumulate;font-family:Latin Modern Sans;-inkscape-font-specification:Latin Modern Sans"
       x="161.37462"
       y="-648.89258"
       id="text3840"
       transform="scale(1,-1)"><tspan
         sodipodi:role="line"
         x="161.37462"
         y="-648.89258"
         id="tspan3865">\textbf{a)}</tspan></text>
<text
       xml:space="preserve"
       style="font-size:11.19999981px;font-style:normal;font-variant:normal;font-weight:normal;font-stretch:normal;text-align:start;writing-mode:lr-tb;text-anchor:start;color:#000000;fill:#000000;fill-opacity:1;fill-rule:nonzero;stroke:none;stroke-width:3.63899994;marker:none;visibility:visible;display:inline;overflow:visible;enable-background:accumulate;font-family:Latin Modern Sans;-inkscape-font-specification:Latin Modern Sans"
       x="323.36636"
       y="-648.89258"
       id="text3840-6"
       transform="scale(1,-1)"><tspan
         sodipodi:role="line"
         id="tspan3842-6"
         x="323.36636"
         y="-648.89258">\textbf{b)}</tspan></text>
<g
       transform="translate(233.593,648.17)"
       id="g3182"
       style="stroke:#000000;stroke-opacity:1;stroke-linecap:round"><path
         inkscape:connector-curvature="0"
         id="path3184"
         style="fill:none;stroke:#000000;stroke-width:2;stroke-linecap:round;stroke-linejoin:miter;stroke-miterlimit:4;stroke-opacity:1;stroke-dasharray:none"
         d="M 0,0 0,-38.948" /><g
         transform="translate(0,-38.948)"
         id="g3186"
         style="stroke:#000000;stroke-opacity:1;stroke-linecap:round"><path
           inkscape:connector-curvature="0"
           id="path3188"
           style="fill:none;stroke:#000000;stroke-width:2;stroke-linecap:square;stroke-linejoin:miter;stroke-miterlimit:4;stroke-opacity:1;stroke-dasharray:none"
           d="M -0.00625,-0.00625 -21.766723,-22.245045"
           sodipodi:nodetypes="cc" /></g></g><text
       id="text3290-2"
       x="191.59315"
       y="-588.55414"
       style="font-size:12px;font-style:normal;font-variant:normal;font-weight:normal;font-stretch:normal;font-family:Latin Modern Sans;-inkscape-font-specification:Latin Modern Sans"
       transform="scale(1,-1)"><tspan
         id="tspan3292-2"
         y="-588.55414"
         x="191.59315"
         style="font-size:8px;font-style:normal;font-variant:normal;font-weight:normal;font-stretch:normal;writing-mode:lr-tb;fill:#131413;fill-opacity:1;fill-rule:nonzero;stroke:none;font-family:Latin Modern Sans;-inkscape-font-specification:Latin Modern Sans">D\textsubscript{1}</tspan></text>
</g></svg>